<svg width="13.312mm" height="12.935mm" version="1.1" viewBox="0 0 13.312 12.935" xmlns="http://www.w3.org/2000/svg">
  <g transform="translate(-93.849 -74.841)">
    <g fill="#fff">
      <path d="m100.1 75.943v5.9531h-1.3688q-0.51447 0-0.83601-0.01837-0.32154-0.02756-0.80845-0.18374-0.49609-0.16536-0.85438-0.46853-0.45016-0.38585-0.71658-0.983-0.26642-0.60634-0.26642-1.3229t0.26642-1.3137q0.26642-0.60634 0.71658-0.99219 0.27561-0.23886 0.59715-0.38585 0.31236-0.14699 0.67983-0.20211 0.36748-0.05512 0.59715-0.06431 0.22967-0.01837 0.62471-0.01837zm1.1759-1.1024h-2.5448q-0.45016 0-0.73495 0.01837-0.29398 0.01837-0.78089 0.10106-0.49609 0.07349-0.93707 0.29398-0.45016 0.2113-0.83601 0.55122-1.3689 1.2127-1.3689 3.1144t1.3689 3.1144q0.32154 0.28479 0.71658 0.48691l-2.3151 5.2549h1.2494l2.1773-4.8783q0.55122 0.10106 1.4607 0.10106h1.3688v4.7772h1.1759z"/>
      <path d="m101.28 87.776h-1.1759v-12.935h1.1667l4.621 10.363h0.0919v-10.363h1.1759v12.935h-1.1759l-4.6118-10.363h-0.0919z"/>
    </g>
  </g>
</svg>
