<?xml version="1.0" encoding="UTF-8" standalone="no"?>
<!-- Created with Inkscape (http://www.inkscape.org/) -->

<svg
   width="310.69644mm"
   height="310.69644mm"
   viewBox="0 0 310.69644 310.69644"
   version="1.1"
   id="svg1"
   inkscape:version="1.3 (0e150ed6c4, 2023-07-21)"
   sodipodi:docname="logo.svg"
   xmlns:inkscape="http://www.inkscape.org/namespaces/inkscape"
   xmlns:sodipodi="http://sodipodi.sourceforge.net/DTD/sodipodi-0.dtd"
   xmlns="http://www.w3.org/2000/svg"
   xmlns:svg="http://www.w3.org/2000/svg">
  <sodipodi:namedview
     id="namedview1"
     pagecolor="#ffffff"
     bordercolor="#000000"
     borderopacity="0.25"
     inkscape:showpageshadow="2"
     inkscape:pageopacity="0.0"
     inkscape:pagecheckerboard="0"
     inkscape:deskcolor="#d1d1d1"
     inkscape:document-units="mm"
     inkscape:zoom="0.72782688"
     inkscape:cx="1031.8388"
     inkscape:cy="687.66353"
     inkscape:window-width="2880"
     inkscape:window-height="1514"
     inkscape:window-x="2870"
     inkscape:window-y="-2"
     inkscape:window-maximized="1"
     inkscape:current-layer="layer1" />
  <defs
     id="defs1" />
  <g
     inkscape:label="Layer 1"
     inkscape:groupmode="layer"
     id="layer1"
     transform="translate(310.69644,44.713577)">
    <g
       id="g4">
      <circle
         style="fill:#000000;stroke-width:1.05833;stroke-linecap:round;stroke-linejoin:round;paint-order:stroke fill markers"
         id="path3"
         cx="-155.34822"
         cy="110.63464"
         r="155.34822" />
      <g
         id="g3"
         style="fill:#ffffff"
         transform="matrix(1.2221957,0,0,1.2221957,-264.58028,-29.936215)">
        <path
           style="font-size:164.148px;font-family:Arial;-inkscape-font-specification:'Arial, Normal';fill:#ffffff;stroke-width:1.05833;stroke-linecap:round;stroke-linejoin:round;paint-order:stroke fill markers"
           d="M 86.88875,173.76525 V 56.264783 h 15.94993 l 61.7158,92.253097 V 56.264783 h 14.90797 V 173.76525 h -15.94993 l -61.7158,-92.333245 v 92.333245 z"
           id="path2" />
        <path
           id="path1"
           style="font-size:164.148px;font-family:Arial;-inkscape-font-specification:'Arial, Normal';fill:#ffffff;stroke-width:1.05833;stroke-linecap:round;stroke-linejoin:round;paint-order:stroke fill markers"
           d="M 102.83868,56.264783 V 173.7651 H 87.289758 V 121.58689 H 69.255717 c -4.007516,0 -6.893013,0.18718 -8.656319,0.56121 -2.40451,0.58777 -4.755158,1.62977 -7.0528,3.12591 -2.351076,1.49614 -4.996071,4.11447 -7.934916,7.85481 -2.938844,3.74035 -6.67917,9.137 -11.221021,16.19023 L 18.841223,173.7651 H -0.71520182 L 19.722823,141.78514 c 4.060948,-6.25172 8.362271,-11.46172 12.904122,-15.62953 2.137342,-1.92361 5.263339,-3.87377 9.377722,-5.85081 C 30.73019,118.75523 22.394712,115.12156 16.997925,109.40417 11.601137,103.68679 8.9028112,96.660476 8.9028112,88.324841 c 0,-6.465458 1.6296618,-12.370293 4.8891078,-17.713647 3.259446,-5.343354 7.614098,-9.056498 13.064319,-11.140405 5.450221,-2.137342 13.411873,-3.206006 23.884847,-3.206006 z M 87.289758,69.249003 H 50.09978 c -8.709667,0 -15.068323,1.790168 -19.075838,5.370215 -4.060949,3.580047 -6.091101,8.148535 -6.091101,13.705623 0,3.793781 1.041999,7.32027 3.125907,10.579716 2.083908,3.206013 5.129394,5.557183 9.13691,7.053313 4.007516,1.44271 9.564674,2.16421 16.671334,2.16421 h 33.422766 z" />
      </g>
    </g>
  </g>
</svg>
